<svg width="1956" height="2437" viewBox="0 0 1956 2437" fill="none" xmlns="http://www.w3.org/2000/svg">
<path d="M1081.88 1216.67L1912.92 2047.95C1970.36 2105.4 1970.36 2198.31 1912.92 2255.16L1774.82 2393.3C1717.38 2450.75 1624.5 2450.75 1567.67 2393.3L978 1804.68L388.939 2393.91C331.5 2451.36 238.619 2451.36 181.79 2393.91L43.0797 2255.77C-14.3599 2198.31 -14.3599 2105.4 43.0797 2048.56L874.12 1217.28C931.56 1159.21 1024.44 1159.21 1081.88 1216.67V1216.67ZM874.12 43.0922L43.0797 874.374C-14.3599 931.83 -14.3599 1024.74 43.0797 1081.58L181.179 1219.72C238.619 1277.18 331.5 1277.18 388.328 1219.72L977.389 630.49L1566.45 1219.72C1623.89 1277.18 1716.77 1277.18 1773.6 1219.72L1911.7 1081.58C1969.14 1024.13 1969.14 931.219 1911.7 874.374L1080.66 43.0922C1024.44 -14.3641 931.56 -14.3641 874.12 43.0922Z" fill="#FF605C"/>
</svg>
