<svg width="448" height="448" viewBox="0 0 448 448" fill="none" xmlns="http://www.w3.org/2000/svg">
<path d="M322.9 272H125.1C114.4 272 109 259 116.6 251.5L215.5 153.2C220.2 148.5 227.7 148.5 232.4 153.2L331.3 251.5C339 259 333.6 272 322.9 272V272ZM448 48V400C448 426.5 426.5 448 400 448H48C21.5 448 0 426.5 0 400V48C0 21.5 21.5 0 48 0H400C426.5 0 448 21.5 448 48ZM400 394V54C400 50.7 397.3 48 394 48H54C50.7 48 48 50.7 48 54V394C48 397.3 50.7 400 54 400H394C397.3 400 400 397.3 400 394Z" fill="#FF605C"/>
</svg>
